<?xml version="1.0" standalone="no"?>
<!DOCTYPE svg PUBLIC "-//W3C//DTD SVG 20010904//EN"
 "http://www.w3.org/TR/2001/REC-SVG-20010904/DTD/svg10.dtd">
<svg version="1.0" xmlns="http://www.w3.org/2000/svg"
 width="464.000000pt" height="464.000000pt" viewBox="0 0 464.000000 464.000000"
 preserveAspectRatio="xMidYMid meet">
<metadata>
Created by potrace 1.11, written by Peter Selinger 2001-2013
</metadata>
<g transform="translate(0.000000,464.000000) scale(0.100000,-0.100000)"
fill="#000000" stroke="none">
<path d="M0 2322 l0 -2318 2303 2 c1266 2 2310 3 2320 3 16 1 17 118 17 2316
l0 2315 -2320 0 -2320 0 0 -2318z m3130 2298 c0 -7 -278 -10 -815 -10 -537 0
-815 3 -815 10 0 7 278 10 815 10 537 0 815 -3 815 -10z m0 -85 c0 -57 -8 -67
-31 -38 -33 40 -142 67 -178 44 -9 -6 1 -12 35 -19 27 -6 60 -15 74 -21 21 -9
17 -10 -21 -5 -30 4 -49 2 -54 -5 -4 -7 -14 -10 -23 -7 -10 2 -29 7 -44 10
-16 4 -28 13 -28 21 0 8 -7 15 -15 15 -8 0 -15 -7 -15 -15 0 -17 30 -35 62
-36 19 -1 18 -3 -9 -11 -29 -9 -36 -7 -72 21 -68 54 -151 77 -190 52 -9 -6 1
-12 35 -19 27 -6 60 -15 74 -21 21 -9 17 -10 -21 -5 -30 4 -49 2 -54 -5 -4 -7
-14 -10 -23 -7 -10 2 -29 7 -44 10 -16 4 -28 13 -28 21 0 8 -7 15 -15 15 -8 0
-15 -7 -15 -15 0 -17 30 -35 62 -36 19 -1 17 -3 -10 -12 -28 -9 -36 -7 -57 13
-13 12 -28 19 -35 15 -6 -3 -9 -1 -8 6 4 18 -44 33 -78 25 -27 -7 -26 -8 31
-32 33 -13 62 -24 65 -24 2 0 -1 -5 -7 -11 -16 -16 -73 -2 -66 17 3 8 -1 14
-11 14 -28 0 -17 -30 16 -44 31 -14 31 -14 10 -27 -25 -16 -29 -39 -7 -39 8 0
15 5 15 10 0 6 12 22 26 35 19 18 33 23 53 19 16 -3 59 3 96 15 38 11 70 19
72 17 4 -4 -126 -53 -161 -61 -23 -5 -27 -8 -15 -16 38 -24 94 -9 184 52 25
17 49 29 52 26 3 -3 -4 -12 -16 -19 -24 -15 -28 -38 -6 -38 8 0 15 4 15 8 0 5
6 16 13 26 12 16 15 17 54 1 39 -16 45 -15 109 4 71 21 103 22 39 1 -20 -6
-45 -22 -57 -33 -11 -12 -17 -16 -13 -8 5 9 2 12 -11 8 -11 -3 -32 -8 -48 -12
-23 -5 -27 -8 -15 -16 38 -24 94 -9 184 52 25 17 49 29 52 26 3 -3 -4 -12 -16
-19 -24 -15 -28 -38 -6 -38 8 0 15 4 15 8 0 5 6 16 13 26 11 15 17 16 40 5
l26 -12 1 -418 0 -419 -60 0 c-62 0 -77 -13 -45 -40 22 -18 22 -215 0 -237
-31 -30 -14 -48 48 -51 l57 -3 0 -394 0 -395 -45 0 c-48 0 -59 -16 -30 -40 11
-9 15 -35 15 -109 0 -84 -3 -100 -20 -119 -23 -24 -50 -28 -68 -10 -19 19 -16
217 4 239 26 29 8 39 -72 39 -56 0 -74 -3 -74 -14 0 -7 7 -19 15 -26 11 -10
15 -36 15 -112 0 -151 20 -178 134 -178 64 0 67 1 86 33 17 27 20 50 20 139 0
60 4 110 10 113 7 4 10 -83 10 -254 l0 -261 -50 0 c-52 0 -65 -15 -35 -40 9
-7 15 -29 15 -51 0 -39 0 -39 -40 -39 -39 0 -40 1 -40 37 0 20 7 44 16 54 25
28 8 39 -62 39 -66 0 -82 -13 -49 -40 23 -19 22 -216 -1 -241 -30 -34 -11 -49
61 -49 57 0 65 2 65 19 0 10 -7 24 -15 31 -10 8 -15 30 -15 61 l0 49 40 0 40
0 0 -47 c0 -29 -6 -53 -16 -64 -27 -30 -11 -49 41 -49 l45 0 0 -119 c0 -113
-1 -120 -21 -126 -11 -4 -29 -26 -40 -48 -33 -73 -21 -150 33 -218 28 -35 29
-38 26 -145 -2 -78 -7 -109 -15 -110 -7 -1 -20 -2 -28 -3 -8 0 -15 -8 -15 -16
0 -9 7 -18 15 -21 23 -9 22 -210 -1 -235 -22 -24 -11 -49 21 -49 l26 0 -2
-154 -1 -154 -26 -12 c-22 -10 -28 -9 -39 6 -7 10 -13 21 -13 26 0 4 -7 8 -15
8 -22 0 -18 -23 6 -38 12 -7 19 -16 16 -19 -3 -3 -27 9 -52 26 -90 61 -146 76
-184 52 -12 -8 -8 -11 15 -16 35 -8 165 -57 161 -61 -2 -2 -30 5 -64 15 -66
20 -84 21 -127 3 -31 -13 -56 -2 -56 24 0 8 -7 14 -15 14 -22 0 -18 -23 6 -38
12 -7 19 -16 16 -19 -3 -3 -27 9 -52 26 -90 61 -146 76 -184 52 -12 -8 -9 -11
14 -17 16 -4 41 -7 56 -8 15 -1 25 -4 23 -8 -2 -3 16 -14 41 -24 66 -25 50
-27 -29 -3 -38 11 -78 18 -89 15 -26 -7 -74 19 -82 44 -3 11 -13 20 -21 20
-21 0 -17 -23 8 -39 21 -13 21 -13 -10 -27 -33 -13 -44 -44 -17 -44 8 0 15 7
15 15 0 18 47 32 61 18 10 -10 -74 -53 -103 -53 -9 0 -9 -3 2 -10 29 -19 68
-10 116 26 42 32 50 35 78 26 26 -9 28 -10 8 -11 -32 -1 -62 -19 -62 -36 0 -8
7 -15 15 -15 8 0 15 6 15 14 0 8 8 17 18 19 52 15 71 16 78 6 4 -7 24 -9 53
-5 38 5 42 4 21 -5 -14 -6 -47 -15 -74 -21 -34 -7 -44 -13 -35 -19 39 -25 122
-2 190 52 36 28 43 30 72 21 29 -9 30 -10 7 -11 -43 -3 -86 -51 -45 -51 8 0
15 6 15 14 0 8 8 17 18 19 52 15 71 16 78 6 4 -7 24 -9 53 -5 38 5 42 4 21 -5
-14 -6 -47 -15 -74 -21 -34 -7 -44 -13 -35 -19 36 -23 145 4 178 44 23 29 31
19 31 -38 l0 -55 -815 0 -814 0 2 60 c1 50 4 59 17 54 8 -3 20 -7 27 -7 7 0
11 -5 10 -11 -3 -17 83 -56 123 -56 60 0 69 17 14 28 -27 6 -60 15 -74 21 -21
9 -17 10 21 5 29 -4 49 -2 53 5 7 10 26 9 79 -6 9 -2 17 -11 17 -19 0 -8 7
-14 15 -14 39 0 -3 49 -43 51 -26 1 -26 1 6 12 29 9 36 7 72 -22 68 -54 150
-77 189 -52 9 6 -1 12 -35 19 -27 6 -60 15 -74 21 -21 9 -17 10 21 5 30 -4 49
-2 54 5 4 7 14 10 23 7 10 -2 29 -7 45 -10 15 -4 27 -13 27 -21 0 -8 7 -15 15
-15 8 0 15 7 15 15 0 17 -30 35 -62 36 -20 1 -18 2 8 11 28 9 36 6 78 -26 48
-36 87 -45 116 -26 11 7 11 10 2 10 -29 0 -113 43 -103 53 14 14 61 0 61 -18
0 -8 7 -15 15 -15 27 0 16 31 -17 44 -31 14 -31 14 -10 27 25 16 29 39 8 39
-8 0 -18 -9 -21 -20 -8 -26 -42 -44 -80 -42 -16 1 -59 -7 -94 -18 -36 -11 -66
-18 -68 -16 -4 4 126 53 161 61 23 5 27 8 15 16 -38 24 -94 9 -184 -52 -25
-17 -49 -29 -52 -26 -3 3 4 12 16 19 24 14 28 38 8 38 -8 0 -19 -12 -26 -26
-8 -19 -16 -24 -29 -19 -66 28 -68 28 -136 6 -38 -12 -70 -20 -72 -18 -5 5
121 54 160 62 23 5 27 8 15 16 -38 24 -94 9 -184 -52 -25 -17 -49 -29 -52 -26
-3 3 4 12 16 19 24 15 28 38 6 38 -8 0 -15 -4 -15 -8 0 -5 -6 -16 -13 -26 -11
-16 -15 -16 -50 -1 -39 16 -47 32 -21 42 15 5 15 7 0 15 -13 8 -16 29 -16 132
0 113 2 124 19 129 14 3 29 37 61 133 26 80 50 135 63 145 11 9 18 23 15 31
-5 13 -26 15 -95 9 -17 -1 -16 -21 2 -41 15 -17 14 -27 -12 -100 -3 -9 -12 5
-23 35 -21 58 -24 79 -10 70 6 -3 10 3 10 15 0 11 -7 23 -15 26 -12 5 -15 27
-15 110 l0 104 40 0 40 0 0 64 c0 36 -4 67 -10 71 -5 3 -20 -15 -33 -41 -17
-34 -26 -43 -32 -34 -5 9 -4 15 3 18 16 5 16 174 0 190 -6 6 -9 14 -5 18 10
10 29 -7 43 -42 8 -19 21 -34 30 -34 12 0 14 12 12 62 l-3 63 -42 -3 -43 -4 0
132 0 132 36 -21 c25 -15 52 -21 95 -21 54 0 64 3 90 29 28 28 39 61 20 61 -5
0 -14 -7 -21 -14 -17 -21 -77 -39 -106 -32 -48 12 -70 118 -40 191 28 67 101
72 138 10 32 -55 50 -46 46 22 -2 46 -7 59 -20 61 -11 2 -18 -3 -18 -13 0 -15
-2 -15 -22 -1 -31 22 -104 20 -155 -4 l-43 -19 0 139 0 140 125 0 126 0 -3 62
c-3 69 -19 84 -38 38 -18 -43 -37 -60 -66 -60 -22 0 -24 3 -24 55 0 30 2 55 6
55 3 0 12 -16 20 -35 8 -19 21 -35 30 -35 12 0 14 14 12 87 -3 74 -6 88 -20
91 -12 2 -18 -3 -18 -15 0 -11 -7 -28 -15 -39 -13 -17 -14 -15 -15 34 l0 53
38 -3 c32 -3 40 -8 55 -40 29 -59 49 -50 45 20 l-3 57 -127 3 -128 3 0 400 c0
262 3 398 10 394 24 -15 91 -15 120 0 37 19 50 43 50 93 0 29 -6 44 -25 60
-14 12 -25 20 -25 17 0 -3 -27 8 -60 25 -63 32 -74 52 -39 70 30 16 65 5 91
-30 34 -46 48 -39 48 23 0 30 -3 56 -6 60 -11 11 -34 -5 -34 -25 0 -18 -1 -18
-16 -4 -19 20 -57 30 -89 24 l-25 -5 0 394 c0 353 2 394 16 400 15 5 15 7 0
15 -25 14 -19 26 21 43 35 15 39 15 50 -1 7 -10 13 -21 13 -26 0 -4 7 -8 15
-8 22 0 18 23 -6 38 -12 7 -19 16 -16 19 3 3 27 -9 52 -26 90 -61 146 -76 184
-52 12 8 8 11 -15 16 -37 8 -165 57 -161 62 2 1 28 -4 58 -13 77 -24 99 -25
133 -7 27 14 31 14 43 -3 7 -10 13 -21 13 -26 0 -4 7 -8 15 -8 22 0 18 23 -6
38 -12 7 -19 16 -16 19 3 3 27 -9 52 -26 90 -61 146 -76 184 -52 12 8 8 11
-15 16 -35 8 -165 57 -161 61 2 2 33 -6 69 -16 36 -11 76 -19 89 -16 31 5 76
-19 84 -44 3 -11 13 -20 21 -20 21 0 17 23 -8 39 -21 13 -21 13 10 27 33 13
44 44 17 44 -8 0 -15 -7 -15 -15 0 -18 -47 -32 -61 -18 -10 10 74 53 103 53 9
0 9 3 -2 10 -29 19 -68 10 -116 -26 -42 -32 -50 -35 -78 -26 -26 9 -28 10 -8
11 32 1 62 19 62 36 0 8 -7 15 -15 15 -8 0 -15 -6 -15 -14 0 -8 -8 -17 -17
-19 -53 -15 -72 -16 -79 -6 -4 7 -24 9 -53 5 -38 -5 -42 -4 -21 5 14 6 47 15
74 21 34 7 44 13 35 19 -39 25 -121 2 -189 -52 -36 -29 -43 -31 -72 -22 -27 9
-29 11 -10 12 32 1 62 19 62 36 0 8 -7 15 -15 15 -8 0 -15 -6 -15 -14 0 -8 -8
-17 -17 -19 -53 -15 -72 -16 -79 -6 -4 7 -24 9 -53 5 -38 -5 -42 -4 -21 5 14
6 47 15 74 21 34 7 44 13 35 19 -37 23 -125 1 -181 -46 -16 -14 -33 -25 -37
-25 -4 0 -7 27 -8 60 l-2 60 814 0 815 0 0 -55z m-1525 -1180 c0 -24 -56 -48
-63 -27 -2 6 -8 10 -13 6 -5 -3 -9 0 -9 6 0 6 -4 8 -10 5 -6 -4 -10 12 -10 40
l0 46 53 -28 c36 -19 52 -34 52 -48z m-85 -1020 c0 -65 -4 -116 -10 -120 -6
-4 -10 38 -10 120 0 82 4 124 10 120 6 -4 10 -55 10 -120z m1610 -2305 c0 -7
-278 -10 -815 -10 -537 0 -815 3 -815 10 0 7 278 10 815 10 537 0 815 -3 815
-10z"/>
<path d="M2286 4488 c-18 -25 -22 -73 -6 -63 6 3 13 -1 16 -9 8 -22 47 -20 67
2 22 24 21 55 -1 75 -26 23 -58 21 -76 -5z"/>
<path d="M1800 4166 c0 -14 24 -39 31 -32 2 3 3 -41 1 -96 -5 -157 16 -188
130 -188 66 0 69 1 88 33 17 26 20 50 20 136 0 82 3 108 16 122 23 26 9 39
-42 39 -47 0 -58 -16 -29 -40 11 -9 15 -35 15 -109 0 -84 -3 -100 -20 -119
-23 -24 -50 -28 -68 -10 -19 19 -16 217 4 239 26 29 8 39 -72 39 -56 0 -74 -3
-74 -14z"/>
<path d="M2130 4166 c0 -7 7 -19 15 -26 23 -19 22 -216 -1 -241 -9 -10 -14
-25 -11 -34 5 -12 28 -15 132 -15 l126 0 -3 67 c-4 87 -23 95 -55 23 -19 -44
-25 -50 -52 -50 l-31 0 0 117 c0 93 3 120 16 134 26 28 8 39 -67 39 -52 0 -69
-3 -69 -14z"/>
<path d="M2430 4166 c0 -7 7 -19 15 -26 23 -19 22 -216 -1 -241 -27 -30 -11
-49 41 -49 41 0 45 2 45 25 0 13 -7 28 -15 33 -13 7 -15 24 -13 87 l3 79 33
-62 c17 -34 32 -69 32 -77 0 -39 30 -7 72 78 l47 92 0 -94 c1 -74 -3 -98 -15
-112 -30 -34 -11 -49 61 -49 58 0 65 2 65 19 0 11 -7 26 -15 35 -22 22 -21
212 1 237 24 27 8 39 -50 39 l-52 0 -34 -71 -34 -70 -35 70 -35 71 -58 0 c-43
0 -58 -4 -58 -14z"/>
<path d="M1837 3612 l-128 -3 3 -47 c2 -34 7 -48 20 -50 12 -2 17 5 20 25 2
20 9 29 26 31 22 3 22 2 22 -109 0 -90 -3 -116 -16 -130 -31 -34 -11 -49 66
-48 66 1 70 2 70 24 0 12 -7 28 -15 35 -12 10 -15 37 -15 121 0 109 0 109 24
109 19 0 25 -6 28 -27 2 -17 10 -29 21 -31 14 -3 17 4 17 47 0 27 -3 51 -7 53
-5 2 -66 2 -136 0z"/>
<path d="M2148 3612 c-99 -2 -128 -6 -128 -16 0 -7 7 -19 15 -26 22 -18 21
-216 -1 -248 -8 -12 -12 -27 -9 -32 4 -6 59 -10 131 -10 l125 0 -3 65 c-2 36
-7 66 -13 66 -8 1 -38 -46 -48 -74 -1 -5 -17 -11 -35 -13 l-32 -4 0 55 c0 30
2 55 6 55 3 0 12 -16 20 -35 8 -19 21 -35 29 -35 12 0 15 17 15 88 0 49 -3 91
-6 95 -11 10 -34 -5 -34 -22 0 -10 -7 -26 -15 -37 -13 -17 -14 -15 -15 34 l0
53 38 -3 c32 -3 40 -8 55 -40 29 -58 47 -50 47 21 0 33 -3 61 -7 63 -5 2 -65
2 -135 0z"/>
<path d="M2433 3613 c-95 -4 -113 -14 -78 -43 12 -10 15 -37 15 -121 0 -99 -2
-109 -21 -123 -13 -9 -19 -21 -16 -30 5 -13 23 -16 87 -16 78 0 80 0 80 25 0
14 -8 29 -20 35 -14 8 -20 21 -20 46 0 51 17 39 50 -36 l29 -65 50 -3 c45 -3
51 -1 51 16 0 11 -8 30 -19 43 -10 13 -25 38 -34 54 -14 28 -14 32 4 54 21 26
26 90 9 122 -9 16 -64 53 -72 47 -2 -1 -45 -4 -95 -5z m58 -53 c35 -19 21
-100 -18 -100 -9 0 -13 17 -13 55 0 59 1 60 31 45z"/>
<path d="M2748 3612 c-70 -3 -85 -15 -53 -42 23 -19 22 -216 -1 -241 -9 -10
-14 -25 -11 -34 5 -12 29 -15 142 -15 l135 0 0 69 c0 95 -19 104 -54 26 -23
-49 -32 -55 -73 -53 l-33 2 0 117 c0 91 3 119 15 129 16 13 20 37 8 42 -5 2
-38 2 -75 0z"/>
<path d="M2082 3150 c-10 -8 -32 -48 -32 -60 0 -5 9 -10 19 -10 21 0 61 44 61
66 0 12 -33 15 -48 4z"/>
<path d="M1740 3037 c0 -8 7 -20 15 -27 12 -10 15 -36 15 -116 0 -112 -13
-157 -36 -126 -9 12 -9 21 0 34 8 13 8 23 0 36 -25 39 -81 12 -70 -34 9 -36
62 -84 93 -84 32 0 80 25 93 49 5 11 10 66 10 122 0 80 4 106 16 120 24 27 12
34 -65 37 -56 3 -71 0 -71 -11z"/>
<path d="M1930 3035 c0 -7 7 -18 15 -25 23 -19 22 -245 -1 -258 -39 -22 -1
-32 122 -32 l125 0 -3 62 c-3 69 -19 84 -38 38 -18 -43 -37 -60 -66 -60 -22 0
-24 3 -24 55 0 30 2 55 4 55 2 0 11 -16 20 -35 9 -19 24 -35 32 -35 12 0 14
15 12 88 -2 67 -6 87 -17 87 -8 0 -19 -14 -25 -32 -18 -52 -26 -49 -26 10 0
57 0 57 30 57 34 0 70 -31 70 -60 0 -13 7 -20 20 -20 19 0 21 5 18 58 l-3 57
-132 1 c-98 1 -133 -2 -133 -11z"/>
<path d="M2243 3037 c-3 -4 2 -16 11 -26 23 -25 23 -211 0 -246 -22 -33 -11
-45 42 -45 36 0 44 3 44 19 0 10 -7 24 -15 31 -11 9 -15 33 -15 84 l0 71 103
-103 c56 -56 106 -102 110 -102 4 0 7 62 7 139 0 112 3 141 15 151 26 21 11
34 -38 36 -50 2 -57 -7 -32 -40 9 -12 15 -42 15 -75 l0 -56 -85 85 c-74 74
-90 85 -121 85 -19 1 -38 -3 -41 -8z"/>
<path d="M2680 2918 c-36 -73 -73 -141 -83 -151 -30 -30 -14 -47 43 -47 55 0
67 17 29 42 -21 13 -21 15 -5 46 15 29 20 32 66 32 48 0 50 -2 70 -40 24 -47
25 -51 4 -43 -12 4 -15 1 -12 -13 3 -16 14 -19 76 -22 74 -3 90 6 60 36 -7 7
-44 75 -83 150 -38 75 -77 138 -85 139 -10 2 -36 -39 -80 -129z m80 -29 c0 -4
-13 -9 -30 -11 -35 -5 -35 -6 -14 34 l16 32 14 -25 c7 -13 13 -27 14 -30z"/>
<path d="M1790 2489 c0 -6 25 -33 55 -61 l55 -50 0 -71 c0 -51 -4 -75 -16 -88
-32 -35 -11 -49 71 -49 67 0 75 2 75 19 0 10 -7 24 -15 31 -11 9 -15 32 -15
80 l0 68 61 56 c33 31 57 61 54 66 -3 6 -31 10 -61 10 -55 0 -68 -12 -42 -38
9 -9 6 -18 -12 -37 l-24 -25 -28 27 c-21 20 -25 30 -17 39 6 7 8 18 4 24 -8
14 -145 13 -145 -1z"/>
<path d="M2150 2485 c0 -8 8 -20 18 -26 15 -9 17 -24 14 -116 -2 -73 -8 -113
-19 -129 -8 -13 -12 -28 -8 -34 4 -6 58 -10 141 -10 l135 0 -3 67 c-4 87 -23
95 -55 23 -21 -48 -23 -50 -62 -50 l-41 0 0 117 c0 93 3 120 16 134 26 28 8
39 -67 39 -54 0 -69 -3 -69 -15z"/>
<path d="M2550 2351 c-40 -82 -78 -147 -83 -144 -5 3 -7 -3 -5 -13 2 -15 14
-20 56 -22 57 -3 70 13 31 40 -21 13 -21 15 -5 46 15 30 20 32 70 32 49 0 54
-2 60 -24 3 -14 13 -32 22 -40 14 -15 13 -16 -6 -16 -15 0 -20 -5 -18 -17 3
-15 16 -19 76 -21 74 -3 90 6 60 36 -7 7 -44 75 -83 150 -38 75 -77 138 -85
140 -11 2 -38 -43 -90 -147z m90 -13 c0 -5 -14 -8 -30 -8 l-31 0 17 32 16 32
14 -25 c7 -13 13 -27 14 -31z"/>
<path d="M1790 1916 c0 -7 7 -19 15 -26 23 -19 22 -216 -1 -241 -31 -34 -11
-49 66 -49 62 0 70 2 70 19 0 10 -7 24 -15 31 -9 8 -15 30 -15 59 l0 46 25
-51 c13 -28 29 -63 34 -78 9 -23 16 -26 56 -26 25 0 45 5 45 11 0 5 -28 50
-62 100 l-62 89 44 45 c24 25 53 45 63 45 12 0 17 6 15 18 -2 13 -15 18 -56
20 -52 3 -67 -9 -42 -34 7 -7 -2 -21 -25 -44 l-35 -34 0 29 c0 16 7 36 16 46
26 28 8 39 -67 39 -52 0 -69 -3 -69 -14z"/>
<path d="M2100 1916 c0 -7 7 -19 15 -26 23 -19 22 -216 -1 -241 -27 -30 -11
-49 41 -49 41 0 45 2 45 24 0 13 -7 26 -15 30 -12 4 -15 24 -15 88 l0 83 35
-60 c19 -33 35 -68 35 -77 0 -41 29 -12 72 75 l47 92 0 -94 c1 -74 -3 -98 -15
-112 -30 -34 -11 -49 61 -49 57 0 65 2 65 19 0 10 -7 24 -15 31 -22 19 -22
216 1 241 24 27 9 39 -49 39 l-53 0 -35 -71 -35 -70 -34 70 -34 71 -58 0 c-43
0 -58 -4 -58 -14z"/>
<path d="M2520 1916 c0 -7 7 -19 15 -26 11 -9 15 -35 15 -107 0 -102 15 -154
48 -172 12 -6 50 -11 86 -11 64 0 67 1 86 33 17 26 20 50 20 136 0 82 3 108
16 122 23 26 9 39 -42 39 -47 0 -58 -16 -29 -40 11 -9 15 -35 15 -109 0 -84
-3 -100 -20 -119 -23 -24 -50 -28 -68 -10 -19 19 -16 217 4 239 26 29 8 39
-72 39 -56 0 -74 -3 -74 -14z"/>
<path d="M1823 1383 c-7 -3 -13 -14 -13 -26 0 -13 -3 -17 -8 -11 -22 34 -85
43 -131 19 -33 -16 -41 -33 -41 -80 0 -42 21 -67 95 -108 33 -18 61 -40 63
-49 4 -21 -34 -42 -56 -32 -9 4 -20 6 -24 6 -5 -1 -8 3 -8 9 0 5 -4 8 -9 5 -5
-3 -14 7 -19 24 -17 47 -42 29 -42 -30 0 -51 12 -69 33 -52 8 7 25 7 53 0 50
-14 88 -5 120 27 21 21 25 33 22 73 l-3 47 -82 43 c-85 44 -99 63 -62 82 30
16 65 5 91 -30 34 -46 48 -39 48 24 0 56 -5 67 -27 59z"/>
<path d="M2093 1383 c-7 -3 -13 -14 -13 -26 0 -13 -3 -17 -8 -11 -21 32 -74
42 -128 22 -34 -12 -44 -31 -44 -84 0 -41 22 -66 95 -107 69 -38 79 -65 31
-82 -22 -7 -30 -7 -34 3 -2 6 -8 10 -13 6 -5 -3 -9 0 -9 6 0 6 -4 9 -9 6 -5
-3 -14 7 -19 24 -17 47 -42 29 -42 -30 0 -51 12 -69 33 -52 8 7 25 7 53 0 50
-14 88 -5 120 27 21 21 25 33 22 73 l-3 47 -82 43 c-85 44 -99 63 -62 82 30
16 65 5 91 -30 34 -46 48 -39 48 24 0 56 -5 67 -27 59z"/>
<path d="M2238 1382 c-70 -3 -85 -15 -53 -42 23 -19 22 -216 -1 -241 -9 -10
-14 -25 -11 -34 5 -12 29 -15 142 -15 l135 0 0 69 c0 98 -17 104 -57 19 -22
-46 -25 -48 -63 -48 l-40 0 0 119 c0 93 3 121 15 131 16 13 20 37 8 42 -5 2
-38 2 -75 0z"/>
<path d="M2558 1382 c-70 -3 -85 -15 -53 -42 23 -19 22 -216 -1 -241 -31 -34
-11 -49 66 -49 67 0 70 1 70 24 0 13 -7 29 -15 36 -12 10 -15 36 -15 115 0 79
3 105 15 115 16 13 20 37 8 42 -5 2 -38 2 -75 0z"/>
<path d="M2723 1383 c-35 -5 -43 -23 -18 -43 23 -19 22 -216 -1 -241 -27 -30
-11 -49 41 -49 41 0 45 2 45 24 0 13 -7 29 -15 36 -11 9 -15 32 -15 84 l0 71
106 -107 c58 -60 107 -108 110 -108 2 0 4 62 4 137 0 112 3 140 16 154 27 30
12 45 -40 41 -48 -4 -59 -19 -31 -42 10 -8 15 -31 15 -69 l0 -56 -88 88 c-48
48 -90 86 -92 85 -3 0 -20 -3 -37 -5z"/>
<path d="M1720 706 c-36 -72 -73 -139 -83 -149 -30 -30 -14 -47 43 -47 55 0
67 17 29 42 -21 13 -21 15 -5 46 15 29 20 32 66 32 48 0 50 -1 70 -40 17 -34
18 -40 5 -40 -8 0 -15 -9 -15 -20 0 -18 7 -20 75 -20 77 0 92 9 63 38 -7 7
-44 74 -83 149 -40 78 -77 138 -85 139 -10 1 -37 -42 -80 -130z m76 -35 c-3
-5 -17 -6 -30 -4 -25 5 -25 6 -9 36 l15 31 15 -27 c7 -15 12 -31 9 -36z"/>
<path d="M2090 828 c0 -4 -3 -7 -7 -6 -5 2 -22 -3 -39 -10 -23 -10 -35 -25
-47 -60 -30 -84 -15 -164 40 -212 30 -27 41 -30 97 -30 49 0 69 5 90 21 29 22
80 114 72 128 -3 4 -38 8 -78 7 -66 -1 -73 -3 -73 -21 0 -14 7 -20 24 -20 13
0 29 -8 35 -17 9 -15 6 -22 -14 -40 -33 -30 -54 -31 -84 -3 -44 40 -47 158 -6
205 24 27 77 33 103 12 18 -16 24 -48 6 -36 -7 4 -9 -2 -7 -17 1 -13 6 -23 11
-21 4 1 23 2 42 2 23 0 35 5 35 13 0 20 -59 99 -69 92 -5 -3 -11 0 -13 6 -4
13 -118 20 -118 7z"/>
<path d="M2344 828 c-3 -4 2 -18 10 -30 12 -17 16 -49 16 -130 0 -99 -1 -107
-21 -113 -12 -4 -19 -14 -17 -23 3 -14 18 -18 86 -20 76 -3 82 -1 82 17 0 11
-9 25 -20 31 -15 8 -20 21 -20 50 0 22 3 40 8 40 4 0 21 -32 39 -70 l31 -70
51 0 c57 0 64 11 33 51 -21 28 -68 108 -57 97 14 -14 45 40 45 77 0 44 -13 71
-43 87 -25 13 -216 18 -223 6z m164 -85 c3 -34 -1 -41 -23 -51 l-25 -12 0 60
c0 57 1 59 23 51 17 -6 23 -17 25 -48z"/>
<path d="M2776 716 c-32 -66 -70 -136 -83 -154 -13 -17 -21 -37 -18 -42 3 -6
28 -10 56 -10 54 0 65 17 28 42 -21 13 -21 15 -5 46 15 28 21 32 59 32 51 0
59 -5 81 -47 15 -30 15 -33 1 -33 -10 0 -15 -7 -13 -17 3 -15 16 -19 76 -21
74 -3 90 6 60 36 -7 7 -44 74 -83 149 -39 77 -77 138 -85 139 -10 1 -35 -39
-74 -120z m75 -26 c5 0 6 -6 4 -12 -4 -11 -65 -20 -65 -10 0 2 8 17 17 33 17
28 18 29 27 9 5 -11 13 -20 17 -20z"/>
<path d="M2294 235 c-4 -8 -10 -12 -15 -9 -15 9 -10 -40 7 -64 28 -40 94 -16
94 35 0 41 -73 74 -86 38z"/>
</g>
</svg>
